# xmcd CD database file
#
# Track frame offsets:
#	150
#	14447
#	29897
#	45947
#	59790
#	74030
#	91227
#	106485
#	126370
#	141992
#	158185
#	173532
#	193805
#	206717
#	222037
#	236162
#	252472
#	275072
#	294320
#	312167
#
# Disc length: 4428 seconds
#
# Revision: 2
# Processed by: cddbd v1.5.2PL0 Copyright (c) Steve Scherf et al.
# Submitted via: CDex 1.70beta2
#
DISCID=40114a14
DTITLE=三波春夫 - 歌芸の軌跡・三波春夫全曲集(歌謡曲集)
DYEAR=1900
DGENRE=Enka
TTITLE0=チャンチキおけさ
TTITLE1=船方さんよ
TTITLE2=雪の渡り鳥
TTITLE3=天竜しぶき笠
TTITLE4=トッチャカ人生
TTITLE5=大利根無情
TTITLE6=忠太郎月夜
TTITLE7=1本刀土俵入り
TTITLE8=桃中軒雲右ヱ門
TTITLE9=文左たから船
TTITLE10=東京五輪音頭
TTITLE11=出世佐渡情話
TTITLE12=水戸黄門旅日記
TTITLE13=百年桜
TTITLE14=世界の国からこんにちは
TTITLE15=これが呑まずに居られるかい
TTITLE16=おまんた囃子
TTITLE17=あゝ北前船
TTITLE18=男の峠道
TTITLE19=富士山
EXTD=
EXTT0=
EXTT1=
EXTT2=
EXTT3=
EXTT4=
EXTT5=
EXTT6=
EXTT7=
EXTT8=
EXTT9=
EXTT10=
EXTT11=
EXTT12=
EXTT13=
EXTT14=
EXTT15=
EXTT16=
EXTT17=
EXTT18=
EXTT19=
PLAYORDER=
